<?xml version="1.0" standalone="no"?>
<!DOCTYPE svg PUBLIC "-//W3C//DTD SVG 20010904//EN"
 "http://www.w3.org/TR/2001/REC-SVG-20010904/DTD/svg10.dtd">
<svg version="1.0" xmlns="http://www.w3.org/2000/svg"
 width="512.000000pt" height="512.000000pt" viewBox="0 0 512.000000 512.000000"
 preserveAspectRatio="xMidYMid meet">
<metadata>
Created by potrace 1.16, written by Peter Selinger 2001-2019
</metadata>
<g transform="translate(0.000000,512.000000) scale(0.100000,-0.100000)"
fill="#000000" stroke="none">
<path d="M1610 5035 c62 -135 117 -294 139 -401 11 -54 19 -99 18 -100 -1 0
-36 -11 -77 -23 -41 -12 -174 -56 -295 -98 -180 -62 -235 -86 -305 -131 -277
-179 -486 -431 -563 -677 -14 -44 -41 -134 -62 -200 -20 -66 -102 -311 -182
-545 -164 -478 -235 -698 -263 -815 -19 -76 -20 -122 -20 -967 l0 -888 395 0
395 0 0 814 0 814 29 84 c39 114 112 281 244 558 l112 235 3 -1153 2 -1152
1380 0 1380 0 1 1163 1 1162 85 -175 c115 -235 244 -528 277 -624 l26 -78 0
-814 0 -814 395 0 395 0 0 891 c0 867 -1 893 -21 972 -34 138 -86 296 -221
682 -182 517 -214 614 -252 745 -46 158 -88 254 -153 352 -107 161 -251 302
-430 423 -88 58 -110 67 -393 161 l-299 99 5 50 c12 106 89 412 129 518 7 16
-11 17 -279 17 l-287 0 -43 -45 c-51 -52 -109 -161 -161 -300 -39 -105 -114
-388 -136 -512 -7 -40 -15 -73 -19 -73 -4 0 -13 28 -19 63 -21 109 -89 359
-131 481 -52 150 -120 285 -172 342 l-41 44 -313 0 -313 0 39 -85z m1203
-1694 c34 -13 67 -50 67 -75 -1 -12 -29 -56 -64 -99 -34 -43 -81 -109 -104
-148 -74 -123 -133 -348 -72 -274 6 8 37 24 68 37 47 18 77 22 167 22 123 0
173 -14 259 -73 141 -98 224 -323 213 -581 -9 -198 -54 -355 -201 -694 -101
-233 -126 -310 -126 -390 0 -39 -4 -66 -10 -66 -40 0 -359 136 -484 207 -382
215 -617 478 -712 798 -34 115 -39 292 -11 395 42 156 144 292 261 350 55 28
71 31 137 28 l74 -3 6 -180 c4 -99 12 -211 19 -250 52 -302 154 -535 306 -704
26 -29 50 -49 51 -44 2 6 -9 44 -25 84 -75 190 -131 397 -157 579 -20 140 -19
381 1 501 31 185 109 376 209 513 52 72 79 86 128 67z"/>
</g>
</svg>
